<mxfile host="app.diagrams.net" modified="2023-05-22T06:49:59.732Z" agent="Mozilla/5.0 (Windows NT 10.0; Win64; x64) AppleWebKit/537.36 (KHTML, like Gecko) Chrome/113.0.0.0 Safari/537.36 Edg/113.0.1774.50" etag="Hr0cCSp4kIkZIN86ESpQ" version="21.3.2" type="github">
  <diagram name="Page-1" id="o9OpNEliba4YvQ79UcyO">
    <mxGraphModel dx="1999" dy="797" grid="1" gridSize="10" guides="1" tooltips="1" connect="1" arrows="1" fold="1" page="1" pageScale="1" pageWidth="1169" pageHeight="827" math="0" shadow="0">
      <root>
        <mxCell id="0" />
        <mxCell id="1" parent="0" />
        <mxCell id="w9MGb8YUcGZBoYfw7rfo-84" value="VPC" style="points=[[0,0],[0.25,0],[0.5,0],[0.75,0],[1,0],[1,0.25],[1,0.5],[1,0.75],[1,1],[0.75,1],[0.5,1],[0.25,1],[0,1],[0,0.75],[0,0.5],[0,0.25]];outlineConnect=0;gradientColor=none;html=1;whiteSpace=wrap;fontSize=12;fontStyle=0;container=0;pointerEvents=0;collapsible=0;recursiveResize=0;shape=mxgraph.aws4.group;grIcon=mxgraph.aws4.group_vpc;strokeColor=#248814;fillColor=none;verticalAlign=top;align=left;spacingLeft=30;fontColor=#AAB7B8;dashed=0;" vertex="1" parent="1">
          <mxGeometry x="450" y="90" width="440" height="650" as="geometry" />
        </mxCell>
        <mxCell id="w9MGb8YUcGZBoYfw7rfo-94" value="" style="group" vertex="1" connectable="0" parent="1">
          <mxGeometry x="470" y="400" width="410" height="320" as="geometry" />
        </mxCell>
        <mxCell id="w9MGb8YUcGZBoYfw7rfo-98" style="edgeStyle=orthogonalEdgeStyle;rounded=0;orthogonalLoop=1;jettySize=auto;html=1;entryX=-0.008;entryY=0.526;entryDx=0;entryDy=0;entryPerimeter=0;" edge="1" parent="w9MGb8YUcGZBoYfw7rfo-94" source="w9MGb8YUcGZBoYfw7rfo-73" target="w9MGb8YUcGZBoYfw7rfo-74">
          <mxGeometry relative="1" as="geometry" />
        </mxCell>
        <mxCell id="w9MGb8YUcGZBoYfw7rfo-73" value="" style="sketch=0;outlineConnect=0;fontColor=#232F3E;gradientColor=none;fillColor=#3F8624;strokeColor=none;dashed=0;verticalLabelPosition=bottom;verticalAlign=top;align=center;html=1;fontSize=12;fontStyle=0;aspect=fixed;pointerEvents=1;shape=mxgraph.aws4.bucket;" vertex="1" parent="w9MGb8YUcGZBoYfw7rfo-94">
          <mxGeometry x="270" y="200" width="45" height="46.8" as="geometry" />
        </mxCell>
        <mxCell id="w9MGb8YUcGZBoYfw7rfo-74" value="&lt;span style=&quot;background-color: rgb(24, 20, 29);&quot;&gt;HTML&lt;/span&gt;" style="html=1;verticalLabelPosition=bottom;align=center;labelBackgroundColor=#ffffff;verticalAlign=top;strokeWidth=2;strokeColor=#0080F0;shadow=0;dashed=0;shape=mxgraph.ios7.icons.document;" vertex="1" parent="w9MGb8YUcGZBoYfw7rfo-94">
          <mxGeometry x="350" y="200" width="30" height="45" as="geometry" />
        </mxCell>
        <mxCell id="w9MGb8YUcGZBoYfw7rfo-77" value="&lt;font color=&quot;#ffffff&quot;&gt;s3 access&lt;br&gt;&lt;/font&gt;" style="sketch=0;outlineConnect=0;fontColor=#232F3E;gradientColor=none;fillColor=#BF0816;strokeColor=none;dashed=0;verticalLabelPosition=bottom;verticalAlign=top;align=center;html=1;fontSize=12;fontStyle=0;aspect=fixed;pointerEvents=1;shape=mxgraph.aws4.role;" vertex="1" parent="w9MGb8YUcGZBoYfw7rfo-94">
          <mxGeometry x="162.41" y="200" width="53.18" height="30" as="geometry" />
        </mxCell>
        <mxCell id="w9MGb8YUcGZBoYfw7rfo-86" style="edgeStyle=orthogonalEdgeStyle;rounded=0;orthogonalLoop=1;jettySize=auto;html=1;entryX=0.5;entryY=-0.038;entryDx=0;entryDy=0;entryPerimeter=0;exitX=0;exitY=0.5;exitDx=0;exitDy=0;exitPerimeter=0;" edge="1" parent="w9MGb8YUcGZBoYfw7rfo-94" source="w9MGb8YUcGZBoYfw7rfo-90" target="w9MGb8YUcGZBoYfw7rfo-79">
          <mxGeometry relative="1" as="geometry">
            <mxPoint x="100" y="39" as="targetPoint" />
            <mxPoint x="150" y="39" as="sourcePoint" />
          </mxGeometry>
        </mxCell>
        <mxCell id="w9MGb8YUcGZBoYfw7rfo-89" style="edgeStyle=orthogonalEdgeStyle;rounded=0;orthogonalLoop=1;jettySize=auto;html=1;exitX=1;exitY=0.5;exitDx=0;exitDy=0;exitPerimeter=0;" edge="1" parent="w9MGb8YUcGZBoYfw7rfo-94" source="w9MGb8YUcGZBoYfw7rfo-90" target="w9MGb8YUcGZBoYfw7rfo-73">
          <mxGeometry relative="1" as="geometry">
            <mxPoint x="228" y="39" as="sourcePoint" />
          </mxGeometry>
        </mxCell>
        <mxCell id="w9MGb8YUcGZBoYfw7rfo-79" value="ec2 contents" style="swimlane;fontStyle=0;childLayout=stackLayout;horizontal=1;startSize=30;horizontalStack=0;resizeParent=1;resizeParentMax=0;resizeLast=0;collapsible=1;marginBottom=0;whiteSpace=wrap;html=1;" vertex="1" parent="w9MGb8YUcGZBoYfw7rfo-94">
          <mxGeometry x="18" y="180" width="106.95" height="120" as="geometry" />
        </mxCell>
        <mxCell id="w9MGb8YUcGZBoYfw7rfo-80" value="bash script in user data" style="text;strokeColor=none;fillColor=none;align=left;verticalAlign=middle;spacingLeft=4;spacingRight=4;overflow=hidden;points=[[0,0.5],[1,0.5]];portConstraint=eastwest;rotatable=0;whiteSpace=wrap;html=1;" vertex="1" parent="w9MGb8YUcGZBoYfw7rfo-79">
          <mxGeometry y="30" width="106.95" height="30" as="geometry" />
        </mxCell>
        <mxCell id="w9MGb8YUcGZBoYfw7rfo-81" value="nginx" style="text;strokeColor=none;fillColor=none;align=left;verticalAlign=middle;spacingLeft=4;spacingRight=4;overflow=hidden;points=[[0,0.5],[1,0.5]];portConstraint=eastwest;rotatable=0;whiteSpace=wrap;html=1;" vertex="1" parent="w9MGb8YUcGZBoYfw7rfo-79">
          <mxGeometry y="60" width="106.95" height="30" as="geometry" />
        </mxCell>
        <mxCell id="w9MGb8YUcGZBoYfw7rfo-82" value="httpd" style="text;strokeColor=none;fillColor=none;align=left;verticalAlign=middle;spacingLeft=4;spacingRight=4;overflow=hidden;points=[[0,0.5],[1,0.5]];portConstraint=eastwest;rotatable=0;whiteSpace=wrap;html=1;" vertex="1" parent="w9MGb8YUcGZBoYfw7rfo-79">
          <mxGeometry y="90" width="106.95" height="30" as="geometry" />
        </mxCell>
        <mxCell id="w9MGb8YUcGZBoYfw7rfo-92" style="edgeStyle=orthogonalEdgeStyle;rounded=0;orthogonalLoop=1;jettySize=auto;html=1;" edge="1" parent="w9MGb8YUcGZBoYfw7rfo-94" source="w9MGb8YUcGZBoYfw7rfo-90" target="w9MGb8YUcGZBoYfw7rfo-77">
          <mxGeometry relative="1" as="geometry" />
        </mxCell>
        <mxCell id="w9MGb8YUcGZBoYfw7rfo-90" value="" style="sketch=0;points=[[0,0,0],[0.25,0,0],[0.5,0,0],[0.75,0,0],[1,0,0],[0,1,0],[0.25,1,0],[0.5,1,0],[0.75,1,0],[1,1,0],[0,0.25,0],[0,0.5,0],[0,0.75,0],[1,0.25,0],[1,0.5,0],[1,0.75,0]];outlineConnect=0;fontColor=#232F3E;gradientColor=#F78E04;gradientDirection=north;fillColor=#D05C17;strokeColor=#ffffff;dashed=0;verticalLabelPosition=bottom;verticalAlign=top;align=center;html=1;fontSize=12;fontStyle=0;aspect=fixed;shape=mxgraph.aws4.resourceIcon;resIcon=mxgraph.aws4.ec2;" vertex="1" parent="w9MGb8YUcGZBoYfw7rfo-94">
          <mxGeometry x="165" y="30" width="48" height="48" as="geometry" />
        </mxCell>
        <mxCell id="w9MGb8YUcGZBoYfw7rfo-93" value="target group" style="swimlane;whiteSpace=wrap;html=1;strokeColor=#F19C99;" vertex="1" parent="1">
          <mxGeometry x="620" y="140" width="80" height="350" as="geometry" />
        </mxCell>
        <mxCell id="w9MGb8YUcGZBoYfw7rfo-101" value="http: port 80 from anywhere&lt;br&gt;&lt;br&gt;ssh: port 22 from my IP only" style="fontStyle=0;verticalAlign=top;align=center;spacingTop=-2;fillColor=none;rounded=0;whiteSpace=wrap;html=1;strokeColor=#FF0000;strokeWidth=2;dashed=1;container=1;collapsible=0;expand=0;recursiveResize=0;" vertex="1" parent="w9MGb8YUcGZBoYfw7rfo-93">
          <mxGeometry x="4" y="30" width="70" height="310" as="geometry" />
        </mxCell>
        <mxCell id="w9MGb8YUcGZBoYfw7rfo-100" style="edgeStyle=orthogonalEdgeStyle;rounded=0;orthogonalLoop=1;jettySize=auto;html=1;" edge="1" parent="1" source="w9MGb8YUcGZBoYfw7rfo-99">
          <mxGeometry relative="1" as="geometry">
            <mxPoint x="620" y="305" as="targetPoint" />
          </mxGeometry>
        </mxCell>
        <mxCell id="w9MGb8YUcGZBoYfw7rfo-99" value="" style="sketch=0;points=[[0,0,0],[0.25,0,0],[0.5,0,0],[0.75,0,0],[1,0,0],[0,1,0],[0.25,1,0],[0.5,1,0],[0.75,1,0],[1,1,0],[0,0.25,0],[0,0.5,0],[0,0.75,0],[1,0.25,0],[1,0.5,0],[1,0.75,0]];outlineConnect=0;fontColor=#232F3E;gradientColor=#F78E04;gradientDirection=north;fillColor=#D05C17;strokeColor=#ffffff;dashed=0;verticalLabelPosition=bottom;verticalAlign=top;align=center;html=1;fontSize=12;fontStyle=0;aspect=fixed;shape=mxgraph.aws4.resourceIcon;resIcon=mxgraph.aws4.elastic_load_balancing;" vertex="1" parent="1">
          <mxGeometry x="480" y="280" width="50" height="50" as="geometry" />
        </mxCell>
      </root>
    </mxGraphModel>
  </diagram>
</mxfile>
